<svg version="1.1" id="Layer_1" xmlns="http://www.w3.org/2000/svg" xmlns:xlink="http://www.w3.org/1999/xlink" x="0px" y="0px"
	 width="100%" viewBox="0 0 182 172" enable-background="new 0 0 182 172" xml:space="preserve">
<path fill="#FDFDFD" opacity="1.000000" stroke="none" 
	d="
M116.000000,173.000000 
	C77.693260,173.000000 39.386517,173.000000 1.039886,173.000000 
	C1.039886,115.733055 1.039886,58.466068 1.039886,1.099543 
	C61.558079,1.099543 122.116371,1.099543 183.000000,1.099543 
	C183.000000,54.687122 183.000000,108.374901 182.584686,162.584991 
	C176.229156,163.404861 170.276810,163.554733 164.352188,164.041809 
	C158.501129,164.522842 151.981766,161.842819 147.111481,167.630005 
	C146.517868,168.335358 144.574234,167.982132 143.255783,167.987076 
	C135.940292,168.014542 128.624496,168.031998 121.309181,167.988022 
	C117.876114,167.967392 115.947342,169.398224 116.000000,173.000000 
M147.782043,120.655670 
	C153.341461,120.149734 158.900879,119.643806 164.678635,119.118004 
	C162.066223,85.948837 159.504944,53.428749 156.915466,20.550846 
	C155.230667,21.132587 153.812088,21.527674 152.469208,22.100273 
	C131.837952,30.897339 111.281212,39.874542 90.544220,48.414200 
	C85.777046,50.377354 85.287720,52.881695 86.977394,57.392010 
	C106.833366,50.723858 126.422478,44.145317 146.524796,37.394440 
	C148.416916,61.520573 150.254837,84.955505 152.100342,108.487198 
	C119.409935,113.789177 87.330902,118.991997 54.791321,124.269516 
	C55.915951,126.697273 56.689903,128.368011 57.221455,130.869049 
	C49.316452,136.856598 41.411446,142.844162 33.506443,148.831711 
	C33.754726,149.205032 34.003014,149.578339 34.251297,149.951660 
	C70.701424,155.039337 107.151550,160.127014 143.582214,165.211975 
	C150.567352,151.587372 157.350754,138.356247 164.155014,125.084435 
	C158.145065,125.084435 152.572830,125.084435 147.000153,124.267273 
	C147.000107,123.177765 147.000061,122.088249 147.782043,120.655670 
M100.119652,99.545570 
	C106.879860,98.979042 113.640068,98.412521 120.643143,97.825638 
	C119.936081,88.602211 119.255905,79.729446 118.543053,70.430489 
	C109.191910,71.138420 100.300453,71.811546 90.902237,72.523033 
	C91.635452,81.825066 92.335358,90.704468 93.069359,100.016464 
	C95.321526,99.896629 97.269936,99.792961 100.119652,99.545570 
M65.015800,114.357414 
	C69.539894,113.990097 74.063995,113.622772 78.738693,113.243225 
	C78.064453,105.412674 77.461166,98.406143 76.847969,91.284531 
	C69.213402,91.899933 62.306198,92.456703 54.858826,93.057022 
	C55.446846,100.483910 56.012512,107.628471 56.602894,115.085205 
	C59.523289,114.851593 61.817814,114.668045 65.015800,114.357414 
M53.131264,66.260406 
	C47.207554,66.613419 41.283844,66.966438 35.167038,67.330956 
	C35.698364,73.764656 36.183460,79.638557 36.686749,85.732765 
	C43.116112,85.213913 48.877914,84.748932 54.951679,84.258781 
	C54.503914,78.229225 54.086250,72.605026 53.131264,66.260406 
M81.921761,72.748695 
	C81.921761,66.802216 81.921761,60.855740 81.921761,54.442200 
	C74.936874,55.015621 69.104698,55.494408 63.005951,55.995079 
	C63.524117,62.328644 63.990807,68.033073 64.489151,74.124329 
	C70.250053,73.713608 75.662392,73.327736 81.921761,72.748695 
M33.178890,47.877895 
	C31.584545,48.031071 29.990202,48.184242 27.927746,48.382389 
	C28.299805,52.377811 28.639391,56.024540 28.998537,59.881306 
	C33.042896,59.512081 36.434940,59.202408 40.336250,58.846245 
	C40.080360,54.956993 39.840855,51.316795 39.589890,47.502357 
	C37.289543,47.637142 35.659698,47.732643 33.178890,47.877895 
M53.596821,43.978924 
	C49.327484,44.638863 48.855923,46.630547 51.541107,53.292828 
	C54.171768,53.117828 56.868370,52.938442 59.721458,52.748650 
	C59.416664,49.548092 59.169155,46.949020 58.882797,43.942055 
	C57.380589,43.942055 55.948051,43.942055 53.596821,43.978924 
M40.532551,40.337402 
	C42.151939,40.184185 43.771328,40.030968 45.826233,39.836544 
	C45.475597,37.177868 45.164085,34.815819 44.817127,32.185005 
	C42.124813,32.472069 39.875004,32.711952 36.442150,33.077976 
	C37.728592,35.934826 38.736103,38.172245 40.532551,40.337402 
M60.528599,35.092918 
	C60.528599,36.675854 60.528599,38.258789 60.528599,40.170422 
	C62.769428,39.998596 64.353539,39.877129 66.174782,39.737480 
	C66.055672,37.745853 65.959251,36.133598 65.842415,34.180000 
	C64.108772,34.381912 62.675358,34.548859 60.528599,35.092918 
M50.923332,32.651173 
	C52.501377,32.651173 54.079418,32.651173 56.098560,32.651173 
	C55.941830,30.472069 55.821445,28.798306 55.681423,26.851488 
	C53.471779,27.046310 51.896118,27.185238 49.972565,27.354836 
	C50.134079,29.135084 50.263977,30.566837 50.923332,32.651173 
z"/>
<path fill="#F9F9F9" opacity="1.000000" stroke="none" 
	d="
M116.468658,173.000000 
	C115.947342,169.398224 117.876114,167.967392 121.309181,167.988022 
	C128.624496,168.031998 135.940292,168.014542 143.255783,167.987076 
	C144.574234,167.982132 146.517868,168.335358 147.111481,167.630005 
	C151.981766,161.842819 158.501129,164.522842 164.352188,164.041809 
	C170.276810,163.554733 176.229156,163.404861 182.584686,163.053650 
	C183.000000,166.314285 183.000000,169.628555 183.000000,173.000000 
	C160.979141,173.000000 138.958221,173.000000 116.468658,173.000000 
z"/>
<path fill="#141414" opacity="1.000000" stroke="none" 
	d="
M147.000595,125.084435 
	C152.572830,125.084435 158.145065,125.084435 164.155014,125.084435 
	C157.350754,138.356247 150.567352,151.587372 143.582214,165.211975 
	C107.151550,160.127014 70.701424,155.039337 34.251297,149.951660 
	C34.003014,149.578339 33.754726,149.205032 33.506443,148.831711 
	C41.411446,142.844162 49.316452,136.856598 57.329735,130.439133 
	C57.438011,130.009216 57.519913,130.011810 57.581959,130.433380 
	C58.761513,130.816422 59.879025,130.777908 61.351364,130.816223 
	C63.421745,130.393860 65.137291,129.894653 67.106552,129.748672 
	C82.235504,129.238159 97.110741,128.374420 112.254967,127.602791 
	C113.047318,127.543671 113.570679,127.392441 114.544998,127.325958 
	C125.664162,126.635277 136.332382,125.859856 147.000595,125.084435 
M92.362183,135.022141 
	C85.415039,135.728882 78.467888,136.435623 71.520744,137.142380 
	C71.558693,137.587753 71.596649,138.033142 71.634598,138.478516 
	C78.830658,137.922729 86.026711,137.366943 94.096848,136.801483 
	C96.750740,136.820984 99.404625,136.840500 102.984764,136.947617 
	C115.467957,136.682678 127.952980,136.475800 140.432129,136.082703 
	C142.078232,136.030853 143.694366,135.028397 145.324387,134.466187 
	C145.164886,133.885239 145.005386,133.304291 144.845886,132.723343 
	C130.582214,133.525818 116.318527,134.328278 101.184219,134.915741 
	C98.539200,135.017593 95.894188,135.119446 92.362183,135.022141 
M114.788460,145.037491 
	C121.914330,145.111496 129.042343,145.300201 136.164383,145.167923 
	C137.687180,145.139633 139.188354,143.946854 141.716141,142.849014 
	C131.938583,142.849014 123.667282,142.809540 115.398697,142.941132 
	C114.868591,142.949570 114.359543,144.281494 114.788460,145.037491 
M132.338928,151.772049 
	C124.702866,151.772049 117.066803,151.772049 109.430740,151.772049 
	C117.080330,153.514145 124.771088,154.246811 132.475266,154.788910 
	C133.317795,154.848206 134.237488,153.811188 135.121399,153.282669 
	C134.514603,152.779633 133.907791,152.276611 132.338928,151.772049 
z"/>
<path fill="#161616" opacity="1.000000" stroke="none" 
	d="
M57.519913,130.011810 
	C57.519913,130.011810 57.438011,130.009216 57.450932,130.023987 
	C56.689903,128.368011 55.915951,126.697273 54.791321,124.269516 
	C87.330902,118.991997 119.409935,113.789177 152.100342,108.487198 
	C150.254837,84.955505 148.416916,61.520573 146.524796,37.394440 
	C126.422478,44.145317 106.833366,50.723858 86.977394,57.392010 
	C85.287720,52.881695 85.777046,50.377354 90.544220,48.414200 
	C111.281212,39.874542 131.837952,30.897339 152.469208,22.100273 
	C153.812088,21.527674 155.230667,21.132587 156.915466,20.550846 
	C159.504944,53.428749 162.066223,85.948837 164.678635,119.118004 
	C158.900879,119.643806 153.341461,120.149734 146.948914,120.745377 
	C135.990524,121.562393 125.859520,122.218285 115.741341,123.033333 
	C99.490906,124.342354 83.248955,125.756607 66.620697,127.034714 
	C64.439888,127.107857 62.641808,127.272675 60.370605,127.378555 
	C59.104961,128.217010 58.312435,129.114410 57.519913,130.011810 
z"/>
<path fill="#131313" opacity="1.000000" stroke="none" 
	d="
M99.668991,99.617432 
	C97.269936,99.792961 95.321526,99.896629 93.069359,100.016464 
	C92.335358,90.704468 91.635452,81.825066 90.902237,72.523033 
	C100.300453,71.811546 109.191910,71.138420 118.543053,70.430489 
	C119.255905,79.729446 119.936081,88.602211 120.643143,97.825638 
	C113.640068,98.412521 106.879860,98.979042 99.668991,99.617432 
z"/>
<path fill="#151515" opacity="1.000000" stroke="none" 
	d="
M64.564072,114.420959 
	C61.817814,114.668045 59.523289,114.851593 56.602894,115.085205 
	C56.012512,107.628471 55.446846,100.483910 54.858826,93.057022 
	C62.306198,92.456703 69.213402,91.899933 76.847969,91.284531 
	C77.461166,98.406143 78.064453,105.412674 78.738693,113.243225 
	C74.063995,113.622772 69.539894,113.990097 64.564072,114.420959 
z"/>
<path fill="#171717" opacity="1.000000" stroke="none" 
	d="
M53.399925,66.620621 
	C54.086250,72.605026 54.503914,78.229225 54.951679,84.258781 
	C48.877914,84.748932 43.116112,85.213913 36.686749,85.732765 
	C36.183460,79.638557 35.698364,73.764656 35.167038,67.330956 
	C41.283844,66.966438 47.207554,66.613419 53.399925,66.620621 
z"/>
<path fill="#171717" opacity="1.000000" stroke="none" 
	d="
M81.498245,72.845276 
	C75.662392,73.327736 70.250053,73.713608 64.489151,74.124329 
	C63.990807,68.033073 63.524117,62.328644 63.005951,55.995079 
	C69.104698,55.494408 74.936874,55.015621 81.921761,54.442200 
	C81.921761,60.855740 81.921761,66.802216 81.498245,72.845276 
z"/>
<path fill="#FEFEFE" opacity="1.000000" stroke="none" 
	d="
M67.003418,127.126389 
	C83.248955,125.756607 99.490906,124.342354 115.741341,123.033333 
	C125.859520,122.218285 135.990524,121.562393 146.557892,120.916908 
	C147.000061,122.088249 147.000107,123.177765 147.000366,124.675858 
	C136.332382,125.859856 125.664162,126.635277 114.422897,127.077774 
	C113.228561,127.000122 112.607269,127.255394 111.985977,127.510681 
	C97.110741,128.374420 82.235504,129.238159 67.150406,129.371918 
	C66.961510,128.136765 66.982460,127.631569 67.003418,127.126389 
z"/>
<path fill="#1A1A1A" opacity="1.000000" stroke="none" 
	d="
M33.604370,47.853020 
	C35.659698,47.732643 37.289543,47.637142 39.589890,47.502357 
	C39.840855,51.316795 40.080360,54.956993 40.336250,58.846245 
	C36.434940,59.202408 33.042896,59.512081 28.998537,59.881306 
	C28.639391,56.024540 28.299805,52.377811 27.927746,48.382389 
	C29.990202,48.184242 31.584545,48.031071 33.604370,47.853020 
z"/>
<path fill="#1B1B1B" opacity="1.000000" stroke="none" 
	d="
M54.056168,43.960487 
	C55.948051,43.942055 57.380589,43.942055 58.882797,43.942055 
	C59.169155,46.949020 59.416664,49.548092 59.721458,52.748650 
	C56.868370,52.938442 54.171768,53.117828 51.541107,53.292828 
	C48.855923,46.630547 49.327484,44.638863 54.056168,43.960487 
z"/>
<path fill="#212121" opacity="1.000000" stroke="none" 
	d="
M40.138084,40.373535 
	C38.736103,38.172245 37.728592,35.934826 36.442150,33.077976 
	C39.875004,32.711952 42.124813,32.472069 44.817127,32.185005 
	C45.164085,34.815819 45.475597,37.177868 45.826233,39.836544 
	C43.771328,40.030968 42.151939,40.184185 40.138084,40.373535 
z"/>
<path fill="#272727" opacity="1.000000" stroke="none" 
	d="
M60.885273,34.904358 
	C62.675358,34.548859 64.108772,34.381912 65.842415,34.180000 
	C65.959251,36.133598 66.055672,37.745853 66.174782,39.737480 
	C64.353539,39.877129 62.769428,39.998596 60.528599,40.170422 
	C60.528599,38.258789 60.528599,36.675854 60.885273,34.904358 
z"/>
<path fill="#323232" opacity="1.000000" stroke="none" 
	d="
M50.658607,32.324883 
	C50.263977,30.566837 50.134079,29.135084 49.972565,27.354836 
	C51.896118,27.185238 53.471779,27.046310 55.681423,26.851488 
	C55.821445,28.798306 55.941830,30.472069 56.098560,32.651173 
	C54.079418,32.651173 52.501377,32.651173 50.658607,32.324883 
z"/>
<path fill="#E9E9E9" opacity="1.000000" stroke="none" 
	d="
M102.054840,135.130753 
	C116.318527,134.328278 130.582214,133.525818 144.845886,132.723343 
	C145.005386,133.304291 145.164886,133.885239 145.324387,134.466187 
	C143.694366,135.028397 142.078232,136.030853 140.432129,136.082703 
	C127.952980,136.475800 115.467957,136.682678 102.512283,136.615662 
	C102.044807,135.899384 102.049820,135.515060 102.054840,135.130753 
z"/>
<path fill="#E1E1E1" opacity="1.000000" stroke="none" 
	d="
M114.314575,145.017609 
	C114.359543,144.281494 114.868591,142.949570 115.398697,142.941132 
	C123.667282,142.809540 131.938583,142.849014 141.716141,142.849014 
	C139.188354,143.946854 137.687180,145.139633 136.164383,145.167923 
	C129.042343,145.300201 121.914330,145.111496 114.314575,145.017609 
z"/>
<path fill="#E1E1E1" opacity="1.000000" stroke="none" 
	d="
M132.819962,151.772812 
	C133.907791,152.276611 134.514603,152.779633 135.121399,153.282654 
	C134.237488,153.811188 133.317795,154.848206 132.475266,154.788910 
	C124.771088,154.246811 117.080330,153.514145 109.430740,151.772049 
	C117.066803,151.772049 124.702866,151.772049 132.819962,151.772812 
z"/>
<path fill="#434343" opacity="1.000000" stroke="none" 
	d="
M93.222771,136.811157 
	C86.026711,137.366943 78.830658,137.922729 71.634598,138.478516 
	C71.596649,138.033142 71.558693,137.587753 71.520744,137.142380 
	C78.467888,136.435623 85.415039,135.728882 92.776642,135.385864 
	C93.201653,136.103439 93.212212,136.457291 93.222771,136.811157 
z"/>
<path fill="#F9F9F9" opacity="1.000000" stroke="none" 
	d="
M66.620697,127.034714 
	C66.982460,127.631569 66.961510,128.136765 66.896698,129.018707 
	C65.137291,129.894653 63.421745,130.393860 61.344501,130.402954 
	C60.936447,129.087738 60.890087,128.262619 60.843727,127.437492 
	C62.641808,127.272675 64.439888,127.107857 66.620697,127.034714 
z"/>
<path fill="#AAAAAA" opacity="1.000000" stroke="none" 
	d="
M93.659805,136.806320 
	C93.212212,136.457291 93.201653,136.103439 93.220131,135.485443 
	C95.894188,135.119446 98.539200,135.017593 101.619522,135.023254 
	C102.049820,135.515060 102.044807,135.899384 102.049156,136.571854 
	C99.404625,136.840500 96.750740,136.820984 93.659805,136.806320 
z"/>
<path fill="#FDFDFD" opacity="1.000000" stroke="none" 
	d="
M60.370605,127.378555 
	C60.890087,128.262619 60.936447,129.087738 60.989670,130.326126 
	C59.879025,130.777908 58.761513,130.816422 57.581955,130.433380 
	C58.312435,129.114410 59.104961,128.217010 60.370605,127.378555 
z"/>
<path fill="#F9F9F9" opacity="1.000000" stroke="none" 
	d="
M112.254959,127.602783 
	C112.607269,127.255394 113.228561,127.000122 113.971954,126.993027 
	C113.570679,127.392441 113.047318,127.543671 112.254959,127.602783 
z"/>
</svg>